<?xml version="1.0" standalone="no"?>
<!-- Generator: Adobe Fireworks 10, Export SVG Extension by Aaron Beall (http://fireworks.abeall.com) . Version: 0.6.1  -->
<!DOCTYPE svg PUBLIC "-//W3C//DTD SVG 1.1//EN" "http://www.w3.org/Graphics/SVG/1.1/DTD/svg11.dtd">
<svg id="Untitled-Page%201" viewBox="0 0 176 153" style="background-color:#ffffff00" version="1.1"
	xmlns="http://www.w3.org/2000/svg" xmlns:xlink="http://www.w3.org/1999/xlink" xml:space="preserve"
	x="0px" y="0px" width="176px" height="153px"
>
	<g>
		<path d="M 163.8602 96.3314 L 156.7685 82.5541 L 166.1918 75.36 C 160.2581 68.874 152.126 64.5698 143.1908 63.4885 L 142.8428 75.1448 L 127.5619 77.3586 L 123.9511 66.275 C 115.5403 69.9093 108.864 76.5063 105.023 84.6003 L 116.0596 88.8248 L 113.1378 104.0557 L 101.5558 103.8457 C 101.6165 104.5659 101.6961 105.2905 101.8051 106.0195 C 102.9926 114.3296 106.818 121.6071 112.2965 127.1176 L 119.7587 118.1913 L 133.1183 125.9556 L 129.1319 136.8795 C 133.847 138.1438 138.8876 138.4884 144.0286 137.7429 C 149.2561 136.9915 154.0751 135.1777 158.2986 132.5535 L 151.2208 122.9547 L 161.8558 111.714 L 171.6375 118.2504 C 175.2327 111.4694 176.7888 103.522 175.6135 95.3325 C 175.4924 94.4691 175.3348 93.6187 175.1583 92.7733 L 163.8602 96.3314 ZM 140.5043 113.2136 C 133.5874 114.2124 127.1741 109.4014 126.1788 102.4685 C 125.1818 95.5356 129.9783 89.1042 136.8953 88.1046 C 143.8087 87.1057 150.2237 91.9177 151.219 98.8497 C 152.2161 105.7826 147.4178 112.2139 140.5043 113.2136 Z" fill="#0099cc"/>
		<path d="M 62.7338 113.5746 L 56.9541 99.1951 L 67.0041 92.9131 C 61.7021 85.9004 54.0045 80.8541 45.2077 78.9424 L 43.7762 90.5171 L 28.3585 91.2911 L 25.7932 79.9177 C 17.0813 82.7502 9.8199 88.6956 5.2449 96.3947 L 15.8384 101.6328 L 11.5162 116.5234 L 0.0018 115.2322 C -0.0051 115.9541 0.007 116.6831 0.0468 117.4198 C 0.4554 125.8054 3.5901 133.4073 8.532 139.4056 L 16.7922 131.2179 L 29.3711 140.1962 L 24.386 150.7009 C 28.9626 152.4001 33.9478 153.2133 39.1355 152.952 C 44.4115 152.6926 49.3794 151.3379 53.8279 149.1199 L 47.6744 138.9006 L 59.3065 128.703 L 68.4373 136.1279 C 72.6487 129.7106 74.9371 121.942 74.5286 113.6805 C 74.487 112.8092 74.4109 111.9467 74.3139 111.0901 L 62.7338 113.5746 ZM 37.9083 128.2006 C 30.9307 128.5477 24.9918 123.1587 24.6456 116.1624 C 24.2977 109.167 29.6706 103.2122 36.6516 102.8633 C 43.6291 102.5144 49.5663 107.907 49.9142 114.9015 C 50.2604 121.8969 44.8858 127.8508 37.9083 128.2006 Z" fill="#0099cc"/>
		<path d="M 108.9419 39.4113 L 100.4342 22.8788 L 111.7391 14.2458 C 104.6214 6.4625 94.8605 1.2974 84.1389 0 L 83.7217 13.9873 L 65.3839 16.6436 L 61.0513 3.3436 C 50.958 7.7043 42.9454 15.6213 38.3375 25.3337 L 51.5811 30.4034 L 48.076 48.6803 L 34.178 48.4286 C 34.2507 49.293 34.3459 50.1625 34.4757 51.0372 C 35.9021 61.0092 40.4926 69.7418 47.0651 76.3545 L 56.0211 65.6432 L 72.0515 74.96 L 67.2672 88.069 C 72.9274 89.5859 78.9737 89.9999 85.1428 89.1052 C 91.4176 88.2035 97.2007 86.0271 102.269 82.8778 L 93.7752 71.3595 L 106.5358 57.8704 L 118.2753 65.7135 C 122.5888 57.577 124.4565 48.0398 123.0458 38.2129 C 122.9004 37.1766 122.7117 36.1561 122.5005 35.1417 L 108.9419 39.4113 ZM 80.9141 59.6702 C 72.6158 60.8685 64.92 55.0951 63.7256 46.7755 C 62.5278 38.4558 68.285 30.7384 76.5832 29.5392 C 84.8815 28.3407 92.5773 34.1151 93.7734 42.433 C 94.9695 50.7526 89.2123 58.47 80.9141 59.6702 Z" fill="#0099cc"/>
	</g>
</svg>